solid OpenSCAD_Model
  facet normal -1 0 0
    outer loop
      vertex -41.5 8 -1.5
      vertex -41.5 8 1.5
      vertex -41.5 38 -1.5
    endloop
  endfacet
  facet normal -1 0 0
    outer loop
      vertex -41.5 38 -1.5
      vertex -41.5 8 1.5
      vertex -41.5 38 1.5
    endloop
  endfacet
  facet normal -0.985212 -0.171341 0
    outer loop
      vertex -41 5.125 1.5
      vertex -41.5 8 1.5
      vertex -41 5.125 -1.5
    endloop
  endfacet
  facet normal -0.985212 -0.171341 0
    outer loop
      vertex -41 5.125 -1.5
      vertex -41.5 8 1.5
      vertex -41.5 8 -1.5
    endloop
  endfacet
  facet normal 0 0 -1
    outer loop
      vertex -41.5 8 -1.5
      vertex -41.5 38 -1.5
      vertex -41 5.125 -1.5
    endloop
  endfacet
  facet normal 0 0 -1
    outer loop
      vertex -41 5.125 -1.5
      vertex -41.5 38 -1.5
      vertex -41 40.875 -1.5
    endloop
  endfacet
  facet normal 0 0 -1
    outer loop
      vertex -41 5.125 -1.5
      vertex -41 40.875 -1.5
      vertex -39.5 43.5 -1.5
    endloop
  endfacet
  facet normal 0 0 -1
    outer loop
      vertex -41 5.125 -1.5
      vertex -39.5 43.5 -1.5
      vertex -37 45.375 -1.5
    endloop
  endfacet
  facet normal 0 0 -1
    outer loop
      vertex -35 38.5 -1.5
      vertex -37 45.375 -1.5
      vertex -33.5 46 -1.5
    endloop
  endfacet
  facet normal 0 0 -1
    outer loop
      vertex -33.5 39 -1.5
      vertex -33.5 46 -1.5
      vertex -4.5 46 -1.5
    endloop
  endfacet
  facet normal 0 0 -1
    outer loop
      vertex -3.625 38.875 -1.5
      vertex -0.875 45.375 -1.5
      vertex 2 43.5 -1.5
    endloop
  endfacet
  facet normal 0 0 -1
    outer loop
      vertex -2.5 38 -1.5
      vertex 2 43.5 -1.5
      vertex 3.875 40.875 -1.5
    endloop
  endfacet
  facet normal 0 0 -1
    outer loop
      vertex -2.5 35 -1.5
      vertex 3.875 40.875 -1.5
      vertex 4.5 38 -1.5
    endloop
  endfacet
  facet normal 0 0 -1
    outer loop
      vertex 4.5 25 -1.5
      vertex -2.5 18 -1.5
      vertex -13.5 18 -1.5
    endloop
  endfacet
  facet normal 0 0 -1
    outer loop
      vertex -2.5 38 -1.5
      vertex 3.875 40.875 -1.5
      vertex -2.5 35 -1.5
    endloop
  endfacet
  facet normal 0 0 -1
    outer loop
      vertex -3 38.5 -1.5
      vertex 2 43.5 -1.5
      vertex -2.5 38 -1.5
    endloop
  endfacet
  facet normal 0 0 -1
    outer loop
      vertex -3.625 38.875 -1.5
      vertex 2 43.5 -1.5
      vertex -3 38.5 -1.5
    endloop
  endfacet
  facet normal 0 0 -1
    outer loop
      vertex -33.5 39 -1.5
      vertex -0.875 45.375 -1.5
      vertex -4.5 39 -1.5
    endloop
  endfacet
  facet normal 0 0 -1
    outer loop
      vertex -4.5 39 -1.5
      vertex -0.875 45.375 -1.5
      vertex -3.625 38.875 -1.5
    endloop
  endfacet
  facet normal 0 0 -1
    outer loop
      vertex -33.5 39 -1.5
      vertex -4.5 46 -1.5
      vertex -0.875 45.375 -1.5
    endloop
  endfacet
  facet normal 0 0 -1
    outer loop
      vertex -34.375 38.875 -1.5
      vertex -33.5 46 -1.5
      vertex -33.5 39 -1.5
    endloop
  endfacet
  facet normal 0 0 -1
    outer loop
      vertex -35 38.5 -1.5
      vertex -33.5 46 -1.5
      vertex -34.375 38.875 -1.5
    endloop
  endfacet
  facet normal 0 0 -1
    outer loop
      vertex -35.5 38 -1.5
      vertex -37 45.375 -1.5
      vertex -35 38.5 -1.5
    endloop
  endfacet
  facet normal 0 0 -1
    outer loop
      vertex -35.5 8 -1.5
      vertex -41 5.125 -1.5
      vertex -35.5 38 -1.5
    endloop
  endfacet
  facet normal 0 0 -1
    outer loop
      vertex -41 5.125 -1.5
      vertex -37 45.375 -1.5
      vertex -35.5 38 -1.5
    endloop
  endfacet
  facet normal 0 0 -1
    outer loop
      vertex -41 5.125 -1.5
      vertex -35.5 8 -1.5
      vertex -35 7.5 -1.5
    endloop
  endfacet
  facet normal 0 0 -1
    outer loop
      vertex 4.5 25 -1.5
      vertex -13.5 18 -1.5
      vertex -13.5 25 -1.5
    endloop
  endfacet
  facet normal 0 0 -1
    outer loop
      vertex -35 7.5 -1.5
      vertex -34.375 7.125 -1.5
      vertex -41 5.125 -1.5
    endloop
  endfacet
  facet normal 0 0 -1
    outer loop
      vertex -34.375 7.125 -1.5
      vertex -33.5 7 -1.5
      vertex -41 5.125 -1.5
    endloop
  endfacet
  facet normal 0 0 -1
    outer loop
      vertex -33.5 7 -1.5
      vertex -4.5 7 -1.5
      vertex -41 5.125 -1.5
    endloop
  endfacet
  facet normal 0 0 -1
    outer loop
      vertex -3.625 7.125 -1.5
      vertex 4.5 8 -1.5
      vertex -4.5 7 -1.5
    endloop
  endfacet
  facet normal 0 0 -1
    outer loop
      vertex -3 7.5 -1.5
      vertex 4.5 8 -1.5
      vertex -3.625 7.125 -1.5
    endloop
  endfacet
  facet normal 0 0 -1
    outer loop
      vertex -2.5 8 -1.5
      vertex 4.5 25 -1.5
      vertex 4.5 8 -1.5
    endloop
  endfacet
  facet normal 0 0 -1
    outer loop
      vertex -2.5 8 -1.5
      vertex 4.5 8 -1.5
      vertex -3 7.5 -1.5
    endloop
  endfacet
  facet normal 0 0 -1
    outer loop
      vertex -4.5 7 -1.5
      vertex 4.5 8 -1.5
      vertex 3.875 5.125 -1.5
    endloop
  endfacet
  facet normal 0 0 -1
    outer loop
      vertex -4.5 7 -1.5
      vertex 3.875 5.125 -1.5
      vertex -41 5.125 -1.5
    endloop
  endfacet
  facet normal 0 0 -1
    outer loop
      vertex -41 5.125 -1.5
      vertex 3.875 5.125 -1.5
      vertex 2 2.5 -1.5
    endloop
  endfacet
  facet normal 0 0 -1
    outer loop
      vertex -41 5.125 -1.5
      vertex 2 2.5 -1.5
      vertex -0.875 0.625 -1.5
    endloop
  endfacet
  facet normal 0 0 -1
    outer loop
      vertex -41 5.125 -1.5
      vertex -0.875 0.625 -1.5
      vertex -4.5 0 -1.5
    endloop
  endfacet
  facet normal 0 0 -1
    outer loop
      vertex -41 5.125 -1.5
      vertex -4.5 0 -1.5
      vertex -33.5 0 -1.5
    endloop
  endfacet
  facet normal 0 0 -1
    outer loop
      vertex -41 5.125 -1.5
      vertex -33.5 0 -1.5
      vertex -37 0.625 -1.5
    endloop
  endfacet
  facet normal 0 0 -1
    outer loop
      vertex -41 5.125 -1.5
      vertex -37 0.625 -1.5
      vertex -39.5 2.5 -1.5
    endloop
  endfacet
  facet normal 0 0 -1
    outer loop
      vertex -2.5 35 -1.5
      vertex 4.5 38 -1.5
      vertex 4.5 35 -1.5
    endloop
  endfacet
  facet normal 0 0 -1
    outer loop
      vertex 4.5 25 -1.5
      vertex -2.5 8 -1.5
      vertex -2.5 18 -1.5
    endloop
  endfacet
  facet normal -0.985212 0.171341 0
    outer loop
      vertex -41 40.875 1.5
      vertex -41 40.875 -1.5
      vertex -41.5 38 1.5
    endloop
  endfacet
  facet normal -0.985212 0.171341 0
    outer loop
      vertex -41.5 38 1.5
      vertex -41 40.875 -1.5
      vertex -41.5 38 -1.5
    endloop
  endfacet
  facet normal 0 0 1
    outer loop
      vertex -41.5 38 1.5
      vertex -41.5 8 1.5
      vertex -41 5.125 1.5
    endloop
  endfacet
  facet normal 0 0 1
    outer loop
      vertex -37 0.625 1.5
      vertex -41.5 38 1.5
      vertex -39.5 2.5 1.5
    endloop
  endfacet
  facet normal 0 0 1
    outer loop
      vertex -39.5 2.5 1.5
      vertex -41.5 38 1.5
      vertex -41 5.125 1.5
    endloop
  endfacet
  facet normal 0 0 1
    outer loop
      vertex -35.5 8 1.5
      vertex -41.5 38 1.5
      vertex -37 0.625 1.5
    endloop
  endfacet
  facet normal 0 0 1
    outer loop
      vertex -35 7.5 1.5
      vertex -35.5 8 1.5
      vertex -33.5 0 1.5
    endloop
  endfacet
  facet normal 0 0 1
    outer loop
      vertex -4.5 7 1.5
      vertex -4.5 0 1.5
      vertex -0.875 0.625 1.5
    endloop
  endfacet
  facet normal 0 0 1
    outer loop
      vertex -3.625 7.125 1.5
      vertex -4.5 7 1.5
      vertex 2 2.5 1.5
    endloop
  endfacet
  facet normal 0 0 1
    outer loop
      vertex -13.5 18 1.5
      vertex -2.5 18 1.5
      vertex -13.5 25 1.5
    endloop
  endfacet
  facet normal 0 0 1
    outer loop
      vertex -4.5 7 1.5
      vertex -33.5 7 1.5
      vertex -4.5 0 1.5
    endloop
  endfacet
  facet normal 0 0 1
    outer loop
      vertex 4.5 25 1.5
      vertex -2.5 18 1.5
      vertex 4.5 8 1.5
    endloop
  endfacet
  facet normal 0 0 1
    outer loop
      vertex 4.5 25 1.5
      vertex -13.5 25 1.5
      vertex -2.5 18 1.5
    endloop
  endfacet
  facet normal 0 0 1
    outer loop
      vertex 3.875 5.125 1.5
      vertex -2.5 8 1.5
      vertex 2 2.5 1.5
    endloop
  endfacet
  facet normal 0 0 1
    outer loop
      vertex -2.5 8 1.5
      vertex -3 7.5 1.5
      vertex 2 2.5 1.5
    endloop
  endfacet
  facet normal 0 0 1
    outer loop
      vertex -3 7.5 1.5
      vertex -3.625 7.125 1.5
      vertex 2 2.5 1.5
    endloop
  endfacet
  facet normal 0 0 1
    outer loop
      vertex 2 2.5 1.5
      vertex -4.5 7 1.5
      vertex -0.875 0.625 1.5
    endloop
  endfacet
  facet normal 0 0 1
    outer loop
      vertex -4.5 0 1.5
      vertex -33.5 7 1.5
      vertex -33.5 0 1.5
    endloop
  endfacet
  facet normal 0 0 1
    outer loop
      vertex -33.5 7 1.5
      vertex -34.375 7.125 1.5
      vertex -33.5 0 1.5
    endloop
  endfacet
  facet normal 0 0 1
    outer loop
      vertex -34.375 7.125 1.5
      vertex -35 7.5 1.5
      vertex -33.5 0 1.5
    endloop
  endfacet
  facet normal 0 0 1
    outer loop
      vertex -33.5 0 1.5
      vertex -35.5 8 1.5
      vertex -37 0.625 1.5
    endloop
  endfacet
  facet normal 0 0 1
    outer loop
      vertex -35 38.5 1.5
      vertex -41.5 38 1.5
      vertex -35.5 38 1.5
    endloop
  endfacet
  facet normal 0 0 1
    outer loop
      vertex -34.375 38.875 1.5
      vertex -41.5 38 1.5
      vertex -35 38.5 1.5
    endloop
  endfacet
  facet normal 0 0 1
    outer loop
      vertex -33.5 39 1.5
      vertex -41.5 38 1.5
      vertex -34.375 38.875 1.5
    endloop
  endfacet
  facet normal 0 0 1
    outer loop
      vertex 2 43.5 1.5
      vertex -41.5 38 1.5
      vertex -33.5 39 1.5
    endloop
  endfacet
  facet normal 0 0 1
    outer loop
      vertex -2.5 35 1.5
      vertex 4.5 35 1.5
      vertex -2.5 38 1.5
    endloop
  endfacet
  facet normal 0 0 1
    outer loop
      vertex 3.875 40.875 1.5
      vertex -33.5 39 1.5
      vertex -4.5 39 1.5
    endloop
  endfacet
  facet normal 0 0 1
    outer loop
      vertex 4.5 38 1.5
      vertex -4.5 39 1.5
      vertex -3.625 38.875 1.5
    endloop
  endfacet
  facet normal 0 0 1
    outer loop
      vertex 4.5 35 1.5
      vertex -3.625 38.875 1.5
      vertex -3 38.5 1.5
    endloop
  endfacet
  facet normal 0 0 1
    outer loop
      vertex 4.5 35 1.5
      vertex -3 38.5 1.5
      vertex -2.5 38 1.5
    endloop
  endfacet
  facet normal 0 0 1
    outer loop
      vertex 4.5 38 1.5
      vertex -3.625 38.875 1.5
      vertex 4.5 35 1.5
    endloop
  endfacet
  facet normal 0 0 1
    outer loop
      vertex 3.875 40.875 1.5
      vertex -4.5 39 1.5
      vertex 4.5 38 1.5
    endloop
  endfacet
  facet normal 0 0 1
    outer loop
      vertex 2 43.5 1.5
      vertex -33.5 39 1.5
      vertex 3.875 40.875 1.5
    endloop
  endfacet
  facet normal 0 0 1
    outer loop
      vertex -0.875 45.375 1.5
      vertex -41.5 38 1.5
      vertex 2 43.5 1.5
    endloop
  endfacet
  facet normal 0 0 1
    outer loop
      vertex -4.5 46 1.5
      vertex -41.5 38 1.5
      vertex -0.875 45.375 1.5
    endloop
  endfacet
  facet normal 0 0 1
    outer loop
      vertex -33.5 46 1.5
      vertex -41.5 38 1.5
      vertex -4.5 46 1.5
    endloop
  endfacet
  facet normal 0 0 1
    outer loop
      vertex -37 45.375 1.5
      vertex -41.5 38 1.5
      vertex -33.5 46 1.5
    endloop
  endfacet
  facet normal 0 0 1
    outer loop
      vertex -39.5 43.5 1.5
      vertex -41.5 38 1.5
      vertex -37 45.375 1.5
    endloop
  endfacet
  facet normal 0 0 1
    outer loop
      vertex -41 40.875 1.5
      vertex -41.5 38 1.5
      vertex -39.5 43.5 1.5
    endloop
  endfacet
  facet normal 0 0 1
    outer loop
      vertex -2.5 18 1.5
      vertex 3.875 5.125 1.5
      vertex 4.5 8 1.5
    endloop
  endfacet
  facet normal 0 0 1
    outer loop
      vertex -2.5 18 1.5
      vertex -2.5 8 1.5
      vertex 3.875 5.125 1.5
    endloop
  endfacet
  facet normal 0 0 1
    outer loop
      vertex -35.5 8 1.5
      vertex -35.5 38 1.5
      vertex -41.5 38 1.5
    endloop
  endfacet
  facet normal -0.868243 -0.496139 0
    outer loop
      vertex -39.5 2.5 1.5
      vertex -41 5.125 1.5
      vertex -39.5 2.5 -1.5
    endloop
  endfacet
  facet normal -0.868243 -0.496139 0
    outer loop
      vertex -39.5 2.5 -1.5
      vertex -41 5.125 1.5
      vertex -41 5.125 -1.5
    endloop
  endfacet
  facet normal -0.6 -0.8 0
    outer loop
      vertex -37 0.625 -1.5
      vertex -37 0.625 1.5
      vertex -39.5 2.5 1.5
    endloop
  endfacet
  facet normal -0.6 -0.8 0
    outer loop
      vertex -39.5 2.5 -1.5
      vertex -37 0.625 -1.5
      vertex -39.5 2.5 1.5
    endloop
  endfacet
  facet normal -0.175791 -0.984428 0
    outer loop
      vertex -33.5 0 -1.5
      vertex -33.5 0 1.5
      vertex -37 0.625 1.5
    endloop
  endfacet
  facet normal -0.175791 -0.984428 0
    outer loop
      vertex -37 0.625 -1.5
      vertex -33.5 0 -1.5
      vertex -37 0.625 1.5
    endloop
  endfacet
  facet normal 0 -1 0
    outer loop
      vertex -33.5 0 1.5
      vertex -33.5 0 -1.5
      vertex -4.5 0 -1.5
    endloop
  endfacet
  facet normal 0 -1 0
    outer loop
      vertex -4.5 0 1.5
      vertex -33.5 0 1.5
      vertex -4.5 0 -1.5
    endloop
  endfacet
  facet normal 0.169907 -0.98546 0
    outer loop
      vertex -0.875 0.625 -1.5
      vertex -0.875 0.625 1.5
      vertex -4.5 0 1.5
    endloop
  endfacet
  facet normal 0.169907 -0.98546 0
    outer loop
      vertex -4.5 0 -1.5
      vertex -0.875 0.625 -1.5
      vertex -4.5 0 1.5
    endloop
  endfacet
  facet normal 0.546268 -0.837611 0
    outer loop
      vertex 2 2.5 -1.5
      vertex 2 2.5 1.5
      vertex -0.875 0.625 1.5
    endloop
  endfacet
  facet normal 0.546268 -0.837611 0
    outer loop
      vertex -0.875 0.625 -1.5
      vertex 2 2.5 -1.5
      vertex -0.875 0.625 1.5
    endloop
  endfacet
  facet normal 0.813733 -0.581238 0
    outer loop
      vertex 3.875 5.125 -1.5
      vertex 3.875 5.125 1.5
      vertex 2 2.5 1.5
    endloop
  endfacet
  facet normal 0.813733 -0.581238 0
    outer loop
      vertex 2 2.5 -1.5
      vertex 3.875 5.125 -1.5
      vertex 2 2.5 1.5
    endloop
  endfacet
  facet normal 0.977176 -0.21243 0
    outer loop
      vertex 4.5 8 -1.5
      vertex 4.5 8 1.5
      vertex 3.875 5.125 1.5
    endloop
  endfacet
  facet normal 0.977176 -0.21243 0
    outer loop
      vertex 3.875 5.125 -1.5
      vertex 4.5 8 -1.5
      vertex 3.875 5.125 1.5
    endloop
  endfacet
  facet normal 1 0 0
    outer loop
      vertex 4.5 8 1.5
      vertex 4.5 8 -1.5
      vertex 4.5 25 -1.5
    endloop
  endfacet
  facet normal 1 0 0
    outer loop
      vertex 4.5 25 1.5
      vertex 4.5 8 1.5
      vertex 4.5 25 -1.5
    endloop
  endfacet
  facet normal 0 1 0
    outer loop
      vertex -13.5 25 -1.5
      vertex -13.5 25 1.5
      vertex 4.5 25 -1.5
    endloop
  endfacet
  facet normal 0 1 0
    outer loop
      vertex 4.5 25 -1.5
      vertex -13.5 25 1.5
      vertex 4.5 25 1.5
    endloop
  endfacet
  facet normal -1 0 0
    outer loop
      vertex -13.5 18 -1.5
      vertex -13.5 18 1.5
      vertex -13.5 25 -1.5
    endloop
  endfacet
  facet normal -1 0 0
    outer loop
      vertex -13.5 25 -1.5
      vertex -13.5 18 1.5
      vertex -13.5 25 1.5
    endloop
  endfacet
  facet normal 0 -1 0
    outer loop
      vertex -13.5 18 1.5
      vertex -13.5 18 -1.5
      vertex -2.5 18 -1.5
    endloop
  endfacet
  facet normal 0 -1 0
    outer loop
      vertex -2.5 18 1.5
      vertex -13.5 18 1.5
      vertex -2.5 18 -1.5
    endloop
  endfacet
  facet normal -1 0 0
    outer loop
      vertex -2.5 8 -1.5
      vertex -2.5 8 1.5
      vertex -2.5 18 -1.5
    endloop
  endfacet
  facet normal -1 0 0
    outer loop
      vertex -2.5 18 -1.5
      vertex -2.5 8 1.5
      vertex -2.5 18 1.5
    endloop
  endfacet
  facet normal -0.707107 0.707107 0
    outer loop
      vertex -3 7.5 -1.5
      vertex -3 7.5 1.5
      vertex -2.5 8 -1.5
    endloop
  endfacet
  facet normal -0.707107 0.707107 0
    outer loop
      vertex -2.5 8 -1.5
      vertex -3 7.5 1.5
      vertex -2.5 8 1.5
    endloop
  endfacet
  facet normal -0.514496 0.857493 0
    outer loop
      vertex -3.625 7.125 -1.5
      vertex -3.625 7.125 1.5
      vertex -3 7.5 -1.5
    endloop
  endfacet
  facet normal -0.514496 0.857493 0
    outer loop
      vertex -3 7.5 -1.5
      vertex -3.625 7.125 1.5
      vertex -3 7.5 1.5
    endloop
  endfacet
  facet normal -0.141421 0.989949 0
    outer loop
      vertex -4.5 7 -1.5
      vertex -4.5 7 1.5
      vertex -3.625 7.125 -1.5
    endloop
  endfacet
  facet normal -0.141421 0.989949 0
    outer loop
      vertex -3.625 7.125 -1.5
      vertex -4.5 7 1.5
      vertex -3.625 7.125 1.5
    endloop
  endfacet
  facet normal 0 1 0
    outer loop
      vertex -33.5 7 -1.5
      vertex -33.5 7 1.5
      vertex -4.5 7 -1.5
    endloop
  endfacet
  facet normal 0 1 0
    outer loop
      vertex -4.5 7 -1.5
      vertex -33.5 7 1.5
      vertex -4.5 7 1.5
    endloop
  endfacet
  facet normal 0.141421 0.989949 0
    outer loop
      vertex -34.375 7.125 -1.5
      vertex -34.375 7.125 1.5
      vertex -33.5 7 -1.5
    endloop
  endfacet
  facet normal 0.141421 0.989949 0
    outer loop
      vertex -33.5 7 -1.5
      vertex -34.375 7.125 1.5
      vertex -33.5 7 1.5
    endloop
  endfacet
  facet normal 0.514496 0.857493 0
    outer loop
      vertex -35 7.5 -1.5
      vertex -35 7.5 1.5
      vertex -34.375 7.125 -1.5
    endloop
  endfacet
  facet normal 0.514496 0.857493 0
    outer loop
      vertex -34.375 7.125 -1.5
      vertex -35 7.5 1.5
      vertex -34.375 7.125 1.5
    endloop
  endfacet
  facet normal 0.707107 0.707107 0
    outer loop
      vertex -35.5 8 -1.5
      vertex -35.5 8 1.5
      vertex -35 7.5 -1.5
    endloop
  endfacet
  facet normal 0.707107 0.707107 0
    outer loop
      vertex -35 7.5 -1.5
      vertex -35.5 8 1.5
      vertex -35 7.5 1.5
    endloop
  endfacet
  facet normal 1 0 0
    outer loop
      vertex -35.5 8 1.5
      vertex -35.5 8 -1.5
      vertex -35.5 38 -1.5
    endloop
  endfacet
  facet normal 1 0 0
    outer loop
      vertex -35.5 38 1.5
      vertex -35.5 8 1.5
      vertex -35.5 38 -1.5
    endloop
  endfacet
  facet normal 0.707107 -0.707107 0
    outer loop
      vertex -35.5 38 1.5
      vertex -35.5 38 -1.5
      vertex -35 38.5 -1.5
    endloop
  endfacet
  facet normal 0.707107 -0.707107 0
    outer loop
      vertex -35 38.5 1.5
      vertex -35.5 38 1.5
      vertex -35 38.5 -1.5
    endloop
  endfacet
  facet normal 0.514496 -0.857493 0
    outer loop
      vertex -35 38.5 1.5
      vertex -35 38.5 -1.5
      vertex -34.375 38.875 -1.5
    endloop
  endfacet
  facet normal 0.514496 -0.857493 0
    outer loop
      vertex -34.375 38.875 1.5
      vertex -35 38.5 1.5
      vertex -34.375 38.875 -1.5
    endloop
  endfacet
  facet normal 0.141421 -0.989949 0
    outer loop
      vertex -34.375 38.875 1.5
      vertex -34.375 38.875 -1.5
      vertex -33.5 39 -1.5
    endloop
  endfacet
  facet normal 0.141421 -0.989949 0
    outer loop
      vertex -33.5 39 1.5
      vertex -34.375 38.875 1.5
      vertex -33.5 39 -1.5
    endloop
  endfacet
  facet normal 0 -1 0
    outer loop
      vertex -33.5 39 1.5
      vertex -33.5 39 -1.5
      vertex -4.5 39 -1.5
    endloop
  endfacet
  facet normal 0 -1 0
    outer loop
      vertex -4.5 39 1.5
      vertex -33.5 39 1.5
      vertex -4.5 39 -1.5
    endloop
  endfacet
  facet normal -0.141421 -0.989949 0
    outer loop
      vertex -4.5 39 1.5
      vertex -4.5 39 -1.5
      vertex -3.625 38.875 -1.5
    endloop
  endfacet
  facet normal -0.141421 -0.989949 0
    outer loop
      vertex -3.625 38.875 1.5
      vertex -4.5 39 1.5
      vertex -3.625 38.875 -1.5
    endloop
  endfacet
  facet normal -0.514496 -0.857493 0
    outer loop
      vertex -3.625 38.875 1.5
      vertex -3.625 38.875 -1.5
      vertex -3 38.5 -1.5
    endloop
  endfacet
  facet normal -0.514496 -0.857493 0
    outer loop
      vertex -3 38.5 1.5
      vertex -3.625 38.875 1.5
      vertex -3 38.5 -1.5
    endloop
  endfacet
  facet normal -0.707107 -0.707107 0
    outer loop
      vertex -3 38.5 1.5
      vertex -3 38.5 -1.5
      vertex -2.5 38 -1.5
    endloop
  endfacet
  facet normal -0.707107 -0.707107 0
    outer loop
      vertex -2.5 38 1.5
      vertex -3 38.5 1.5
      vertex -2.5 38 -1.5
    endloop
  endfacet
  facet normal -1 0 0
    outer loop
      vertex -2.5 35 -1.5
      vertex -2.5 35 1.5
      vertex -2.5 38 -1.5
    endloop
  endfacet
  facet normal -1 0 0
    outer loop
      vertex -2.5 38 -1.5
      vertex -2.5 35 1.5
      vertex -2.5 38 1.5
    endloop
  endfacet
  facet normal 0 -1 0
    outer loop
      vertex -2.5 35 1.5
      vertex -2.5 35 -1.5
      vertex 4.5 35 -1.5
    endloop
  endfacet
  facet normal 0 -1 0
    outer loop
      vertex 4.5 35 1.5
      vertex -2.5 35 1.5
      vertex 4.5 35 -1.5
    endloop
  endfacet
  facet normal 1 0 0
    outer loop
      vertex 4.5 35 1.5
      vertex 4.5 35 -1.5
      vertex 4.5 38 -1.5
    endloop
  endfacet
  facet normal 1 0 0
    outer loop
      vertex 4.5 38 1.5
      vertex 4.5 35 1.5
      vertex 4.5 38 -1.5
    endloop
  endfacet
  facet normal 0.977176 0.21243 0
    outer loop
      vertex 3.875 40.875 1.5
      vertex 4.5 38 1.5
      vertex 4.5 38 -1.5
    endloop
  endfacet
  facet normal 0.977176 0.21243 0
    outer loop
      vertex 3.875 40.875 -1.5
      vertex 3.875 40.875 1.5
      vertex 4.5 38 -1.5
    endloop
  endfacet
  facet normal 0.813733 0.581238 0
    outer loop
      vertex 2 43.5 1.5
      vertex 3.875 40.875 1.5
      vertex 3.875 40.875 -1.5
    endloop
  endfacet
  facet normal 0.813733 0.581238 0
    outer loop
      vertex 2 43.5 -1.5
      vertex 2 43.5 1.5
      vertex 3.875 40.875 -1.5
    endloop
  endfacet
  facet normal 0.546268 0.837611 0
    outer loop
      vertex 2 43.5 1.5
      vertex 2 43.5 -1.5
      vertex -0.875 45.375 1.5
    endloop
  endfacet
  facet normal 0.546268 0.837611 0
    outer loop
      vertex -0.875 45.375 1.5
      vertex 2 43.5 -1.5
      vertex -0.875 45.375 -1.5
    endloop
  endfacet
  facet normal 0.169907 0.98546 0
    outer loop
      vertex -0.875 45.375 1.5
      vertex -0.875 45.375 -1.5
      vertex -4.5 46 1.5
    endloop
  endfacet
  facet normal 0.169907 0.98546 0
    outer loop
      vertex -4.5 46 1.5
      vertex -0.875 45.375 -1.5
      vertex -4.5 46 -1.5
    endloop
  endfacet
  facet normal 0 1 0
    outer loop
      vertex -33.5 46 -1.5
      vertex -33.5 46 1.5
      vertex -4.5 46 -1.5
    endloop
  endfacet
  facet normal 0 1 0
    outer loop
      vertex -4.5 46 -1.5
      vertex -33.5 46 1.5
      vertex -4.5 46 1.5
    endloop
  endfacet
  facet normal -0.175791 0.984428 0
    outer loop
      vertex -33.5 46 1.5
      vertex -33.5 46 -1.5
      vertex -37 45.375 1.5
    endloop
  endfacet
  facet normal -0.175791 0.984428 0
    outer loop
      vertex -37 45.375 1.5
      vertex -33.5 46 -1.5
      vertex -37 45.375 -1.5
    endloop
  endfacet
  facet normal -0.6 0.8 0
    outer loop
      vertex -37 45.375 1.5
      vertex -37 45.375 -1.5
      vertex -39.5 43.5 1.5
    endloop
  endfacet
  facet normal -0.6 0.8 0
    outer loop
      vertex -39.5 43.5 1.5
      vertex -37 45.375 -1.5
      vertex -39.5 43.5 -1.5
    endloop
  endfacet
  facet normal -0.868243 0.496139 0
    outer loop
      vertex -39.5 43.5 1.5
      vertex -39.5 43.5 -1.5
      vertex -41 40.875 1.5
    endloop
  endfacet
  facet normal -0.868243 0.496139 0
    outer loop
      vertex -41 40.875 1.5
      vertex -39.5 43.5 -1.5
      vertex -41 40.875 -1.5
    endloop
  endfacet
  facet normal 0 -1 0
    outer loop
      vertex 14.5 31 1.5
      vertex 14.5 31 -1.5
      vertex 23.5 31 -1.5
    endloop
  endfacet
  facet normal 0 -1 0
    outer loop
      vertex 23.5 31 1.5
      vertex 14.5 31 1.5
      vertex 23.5 31 -1.5
    endloop
  endfacet
  facet normal 0 0 -1
    outer loop
      vertex 14.5 31 -1.5
      vertex 27.5 46 -1.5
      vertex 23.5 31 -1.5
    endloop
  endfacet
  facet normal 0 0 -1
    outer loop
      vertex 23.5 31 -1.5
      vertex 27.5 46 -1.5
      vertex 35.5 46 -1.5
    endloop
  endfacet
  facet normal 0 0 -1
    outer loop
      vertex 28.5 37 -1.5
      vertex 35.5 46 -1.5
      vertex 35.5 0 -1.5
    endloop
  endfacet
  facet normal 0 0 -1
    outer loop
      vertex 23.5 31 -1.5
      vertex 35.5 46 -1.5
      vertex 28.5 37 -1.5
    endloop
  endfacet
  facet normal 0 0 -1
    outer loop
      vertex 28.5 37 -1.5
      vertex 35.5 0 -1.5
      vertex 28.5 0 -1.5
    endloop
  endfacet
  facet normal -0.755689 0.654931 0
    outer loop
      vertex 14.5 31 -1.5
      vertex 14.5 31 1.5
      vertex 27.5 46 -1.5
    endloop
  endfacet
  facet normal -0.755689 0.654931 0
    outer loop
      vertex 27.5 46 -1.5
      vertex 14.5 31 1.5
      vertex 27.5 46 1.5
    endloop
  endfacet
  facet normal 0 0 1
    outer loop
      vertex 27.5 46 1.5
      vertex 14.5 31 1.5
      vertex 23.5 31 1.5
    endloop
  endfacet
  facet normal 0 0 1
    outer loop
      vertex 35.5 0 1.5
      vertex 27.5 46 1.5
      vertex 28.5 37 1.5
    endloop
  endfacet
  facet normal 0 0 1
    outer loop
      vertex 28.5 37 1.5
      vertex 27.5 46 1.5
      vertex 23.5 31 1.5
    endloop
  endfacet
  facet normal 0 0 1
    outer loop
      vertex 35.5 0 1.5
      vertex 28.5 37 1.5
      vertex 28.5 0 1.5
    endloop
  endfacet
  facet normal 0 0 1
    outer loop
      vertex 35.5 46 1.5
      vertex 27.5 46 1.5
      vertex 35.5 0 1.5
    endloop
  endfacet
  facet normal 0.768221 -0.640184 0
    outer loop
      vertex 23.5 31 1.5
      vertex 23.5 31 -1.5
      vertex 28.5 37 -1.5
    endloop
  endfacet
  facet normal 0.768221 -0.640184 0
    outer loop
      vertex 28.5 37 1.5
      vertex 23.5 31 1.5
      vertex 28.5 37 -1.5
    endloop
  endfacet
  facet normal -1 0 0
    outer loop
      vertex 28.5 0 -1.5
      vertex 28.5 0 1.5
      vertex 28.5 37 -1.5
    endloop
  endfacet
  facet normal -1 0 0
    outer loop
      vertex 28.5 37 -1.5
      vertex 28.5 0 1.5
      vertex 28.5 37 1.5
    endloop
  endfacet
  facet normal 0 -1 0
    outer loop
      vertex 28.5 0 1.5
      vertex 28.5 0 -1.5
      vertex 35.5 0 -1.5
    endloop
  endfacet
  facet normal 0 -1 0
    outer loop
      vertex 35.5 0 1.5
      vertex 28.5 0 1.5
      vertex 35.5 0 -1.5
    endloop
  endfacet
  facet normal 1 0 0
    outer loop
      vertex 35.5 0 1.5
      vertex 35.5 0 -1.5
      vertex 35.5 46 -1.5
    endloop
  endfacet
  facet normal 1 0 0
    outer loop
      vertex 35.5 46 1.5
      vertex 35.5 0 1.5
      vertex 35.5 46 -1.5
    endloop
  endfacet
  facet normal 0 1 0
    outer loop
      vertex 27.5 46 -1.5
      vertex 27.5 46 1.5
      vertex 35.5 46 -1.5
    endloop
  endfacet
  facet normal 0 1 0
    outer loop
      vertex 35.5 46 -1.5
      vertex 27.5 46 1.5
      vertex 35.5 46 1.5
    endloop
  endfacet
endsolid OpenSCAD_Model
