<?xml version="1.0" standalone="no"?>
<!DOCTYPE svg PUBLIC "-//W3C//DTD SVG 1.1//EN" "http://www.w3.org/Graphics/SVG/1.1/DTD/svg11.dtd">
<svg width="44" height="44" viewBox="-22 -22 44 44" xmlns="http://www.w3.org/2000/svg" version="1.1">
<title>OpenSCAD Model</title>
<path d="
M 1.38138,21.9566 L 2.75732,21.8265 L 4.12238,21.6103 L 5.47118,21.3088 L 6.79837,20.9232 L 8.09874,20.4551
 L 9.36714,19.9062 L 10.5986,19.2787 L 11.7882,18.5752 L 12.9313,17.7984 L 14.0233,16.9513 L 15.06,16.0373
 L 16.0373,15.06 L 16.9513,14.0233 L 17.7984,12.9313 L 18.5752,11.7882 L 19.2787,10.5986 L 19.9062,9.36714
 L 20.4551,8.09874 L 20.9232,6.79837 L 21.3088,5.47118 L 21.6103,4.12238 L 21.8265,2.75732 L 21.9566,1.38138
 L 22,-0 L 21.9566,-1.38138 L 21.8265,-2.75732 L 21.6103,-4.12238 L 21.3088,-5.47118 L 20.9232,-6.79837
 L 20.4551,-8.09874 L 19.9062,-9.36714 L 19.2787,-10.5986 L 18.5752,-11.7882 L 17.7984,-12.9313 L 16.9513,-14.0233
 L 16.0373,-15.06 L 15.06,-16.0373 L 14.0233,-16.9513 L 12.9313,-17.7984 L 11.7882,-18.5752 L 10.5986,-19.2787
 L 9.36714,-19.9062 L 8.09874,-20.4551 L 6.79837,-20.9232 L 5.47118,-21.3088 L 4.12238,-21.6103 L 2.75732,-21.8265
 L 1.38138,-21.9566 L 0,-22 L -1.38138,-21.9566 L -2.75732,-21.8265 L -4.12238,-21.6103 L -5.47118,-21.3088
 L -6.79837,-20.9232 L -8.09874,-20.4551 L -9.36714,-19.9062 L -10.5986,-19.2787 L -11.7882,-18.5752 L -12.9313,-17.7984
 L -14.0233,-16.9513 L -15.06,-16.0373 L -16.0373,-15.06 L -16.9513,-14.0233 L -17.7984,-12.9313 L -18.5752,-11.7882
 L -19.2787,-10.5986 L -19.9062,-9.36714 L -20.4551,-8.09874 L -20.9232,-6.79837 L -21.3088,-5.47118 L -21.6103,-4.12238
 L -21.8265,-2.75732 L -21.9566,-1.38138 L -22,-0 L -21.9566,1.38138 L -21.8265,2.75732 L -21.6103,4.12238
 L -21.3088,5.47118 L -20.9232,6.79837 L -20.4551,8.09874 L -19.9062,9.36714 L -19.2787,10.5986 L -18.5752,11.7882
 L -17.7984,12.9313 L -16.9513,14.0233 L -16.0373,15.06 L -15.06,16.0373 L -14.0233,16.9513 L -12.9313,17.7984
 L -11.7882,18.5752 L -10.5986,19.2787 L -9.36714,19.9062 L -8.09874,20.4551 L -6.79837,20.9232 L -5.47118,21.3088
 L -4.12238,21.6103 L -2.75732,21.8265 L -1.38138,21.9566 L 0,22 z
M -1.20551,-17.6241 L -1.20551,-19.3759 L 0.460464,-19.9172 L 1.4901,-18.5 L 0.460464,-17.0828 z
M -1.20551,-12.1241 L -1.20551,-13.8759 L 0.460464,-14.4172 L 1.4901,-13 L 0.460464,-11.5828 z
M -0.502319,7.98421 L -1.00266,7.9369 L -1.49904,7.85829 L -1.98952,7.74866 L -2.47212,7.60844 L -2.94499,7.4382
 L -3.40622,7.2386 L -3.85402,7.01045 L -4.28661,6.75461 L -4.70227,6.47212 L -5.09938,6.16409 L -5.47636,5.83174
 L -5.83174,5.47636 L -6.16409,5.09938 L -6.47212,4.70227 L -6.75461,4.28661 L -7.01045,3.85402 L -7.2386,3.40622
 L -7.4382,2.94499 L -7.60844,2.47212 L -7.74866,1.98952 L -7.85829,1.49904 L -7.9369,1.00266 L -7.98421,0.502319
 L -8,-0 L -7.98421,-0.502319 L -7.9369,-1.00266 L -7.85829,-1.49904 L -7.74866,-1.98952 L -7.60844,-2.47212
 L -7.4382,-2.94499 L -7.2386,-3.40622 L -7.01045,-3.85402 L -6.75461,-4.28661 L -6.47212,-4.70227 L -6.16409,-5.09938
 L -5.83174,-5.47636 L -5.47636,-5.83174 L -5.09938,-6.16409 L -4.70227,-6.47212 L -4.28661,-6.75461 L -3.85402,-7.01045
 L -3.40622,-7.2386 L -2.94499,-7.4382 L -2.47212,-7.60844 L -1.98952,-7.74866 L -1.49904,-7.85829 L -1.00266,-7.9369
 L -0.502319,-7.98421 L 0,-8 L 0.502319,-7.98421 L 1.00266,-7.9369 L 1.49904,-7.85829 L 1.98952,-7.74866
 L 2.47212,-7.60844 L 2.94499,-7.4382 L 3.40622,-7.2386 L 3.85402,-7.01045 L 4.28661,-6.75461 L 4.70227,-6.47212
 L 5.09938,-6.16409 L 5.47636,-5.83174 L 5.83174,-5.47636 L 6.16409,-5.09938 L 6.47212,-4.70227 L 6.75461,-4.28661
 L 7.01045,-3.85402 L 7.2386,-3.40622 L 7.4382,-2.94499 L 7.60844,-2.47212 L 7.74866,-1.98952 L 7.85829,-1.49904
 L 7.9369,-1.00266 L 7.98421,-0.502319 L 8,-0 L 7.98421,0.502319 L 7.9369,1.00266 L 7.85829,1.49904
 L 7.74866,1.98952 L 7.60844,2.47212 L 7.4382,2.94499 L 7.2386,3.40622 L 7.01045,3.85402 L 6.75461,4.28661
 L 6.47212,4.70227 L 6.16409,5.09938 L 5.83174,5.47636 L 5.47636,5.83174 L 5.09938,6.16409 L 4.70227,6.47212
 L 4.28661,6.75461 L 3.85402,7.01045 L 3.40622,7.2386 L 2.94499,7.4382 L 2.47212,7.60844 L 1.98952,7.74866
 L 1.49904,7.85829 L 1.00266,7.9369 L 0.502319,7.98421 L 0,8 z
M -12.2055,6.87585 L -12.2055,5.12413 L -10.5395,4.58282 L -9.50989,6 L -10.5395,7.41716 z
M 9.79448,6.87585 L 9.79448,5.12413 L 11.4605,4.58282 L 12.4901,6 L 11.4605,7.41716 z
M 14.5639,8.94019 L 15.8657,7.76805 L 17.3827,8.64392 L 17.0185,10.3573 L 15.2764,10.5405 z
M -17.479,9.5598 L -16.7665,7.95953 L -15.0244,8.14264 L -14.6602,9.85606 L -16.1772,10.7319 z
M -1.20551,13.8759 L -1.20551,12.1241 L 0.460464,11.5828 L 1.4901,13 L 0.460464,14.4172 z
" stroke="black" fill="lightgray" stroke-width="0.5"/></svg>
